<?xml version="1.0" standalone="no"?>
<!DOCTYPE svg PUBLIC "-//W3C//DTD SVG 20010904//EN"
 "http://www.w3.org/TR/2001/REC-SVG-20010904/DTD/svg10.dtd">
<svg version="1.0" xmlns="http://www.w3.org/2000/svg"
 width="441.000000pt" height="291.000000pt" viewBox="0 0 441.000000 291.000000"
 preserveAspectRatio="xMidYMid meet">
<metadata>
Created by potrace 1.13, written by Peter Selinger 2001-2015
</metadata>
<g transform="translate(0.000000,291.000000) scale(0.100000,-0.100000)"
fill="#000000" stroke="none">
<path d="M2214 1896 c-60 -51 -21 -146 58 -146 82 0 116 83 59 141 -37 36 -79
38 -117 5z"/>
<path d="M1960 1842 c-34 -34 -37 -50 -15 -91 37 -72 145 -45 145 36 0 40 -27
71 -67 79 -27 5 -37 1 -63 -24z"/>
<path d="M2460 1788 c-14 -7 -33 -30 -43 -50 -16 -33 -17 -40 -3 -71 17 -42
42 -57 91 -57 51 0 85 36 85 89 0 72 -70 119 -130 89z"/>
</g>
</svg>
